<svg width="132" height="90" viewBox="0 0 132 90" fill="none" xmlns="http://www.w3.org/2000/svg">
<path d="M83.4786 50.8634C88.2312 53.4528 93.7068 54.8131 99.2755 54.8119C98.7229 55.9959 97.8907 57.093 96.8444 58.4674L96.7544 58.5857L96.679 58.7139C96.4186 59.1564 96.0165 59.5972 95.3975 60.177C95.2737 60.2929 95.1324 60.4219 94.9798 60.5611C94.4832 61.0143 93.8672 61.5765 93.3489 62.1516C92.9284 62.5829 92.3921 62.9867 91.6985 63.4615C91.5581 63.5576 91.4053 63.6603 91.2444 63.7685C90.6728 64.1529 89.9983 64.6065 89.4074 65.0796L89.3775 65.1036L89.3483 65.1284C88.9404 65.4761 88.4156 65.781 87.7111 66.1293C87.5468 66.2106 87.3554 66.3018 87.1484 66.4005C86.62 66.6524 85.9899 66.9527 85.45 67.2586C85.0899 67.4382 84.7463 67.619 84.4314 67.7854L84.3359 67.8358C84.0316 67.9967 83.7584 68.141 83.4888 68.277C82.8924 68.5777 82.4254 68.7785 81.9999 68.8977L81.9169 68.9209L81.8358 68.9498L78.5576 70.1169L78.5509 70.1193L75.6681 71.1549L73.4607 71.9479L74.1115 74.2013L77.0551 84.3944L77.6982 86.6212L79.9672 86.1481L83.598 85.3912L83.6083 85.389L83.6185 85.3868C84.0769 85.2872 84.6164 85.1724 85.2047 85.0472C85.9904 84.88 86.8633 84.6943 87.7465 84.5015C89.2222 84.256 90.8131 83.6945 92.2449 83.1892C92.6579 83.0434 93.0577 82.9023 93.4376 82.7748L93.4946 82.7557L93.5505 82.7339C94.1159 82.5135 94.6533 82.3362 95.2656 82.1343C95.6499 82.0076 96.0637 81.8711 96.5325 81.7081C97.6438 81.3216 98.8869 80.8392 100.119 80.1292C100.752 79.7838 101.376 79.4759 102.061 79.1383C102.459 78.942 102.878 78.7356 103.33 78.5059C104.501 77.9115 105.771 77.2201 106.992 76.3397L107.022 76.3179L107.052 76.2952C107.665 75.8244 108.265 75.4116 108.924 74.9573C109.339 74.6713 109.778 74.3689 110.26 74.0251C111.391 73.2177 112.613 72.275 113.693 71.1102C115.671 69.2526 117.768 67.17 119.442 64.7483C121.162 62.6553 122.397 60.3849 123.504 58.3502C123.64 58.1012 123.773 57.8557 123.905 57.6144L123.93 57.5695L123.953 57.5235C125.172 55.0674 126.145 52.572 126.935 50.1697L126.941 50.1505L126.947 50.1313C128.458 45.2697 129.13 40.6648 129.39 36.7431L129.391 36.729L129.391 36.7148C129.604 32.8332 129.483 29.5645 129.212 27.1421C129.121 26.1327 128.984 25.127 128.804 24.1272C128.803 24.1235 128.803 24.1199 128.802 24.1162L128.653 23.2535L128.218 20.7239L127.765 20.8142C126.336 16.8251 123.841 13.2089 120.508 10.2583C116.55 6.75395 111.562 4.32067 106.136 3.19979C100.711 2.07888 95.0309 2.30763 89.7423 3.8639C84.4537 5.42017 79.7363 8.25203 76.1601 12.0754C72.5803 15.9025 70.2889 20.5714 69.6106 25.554C68.9318 30.5397 69.905 35.574 72.3847 40.0612C74.861 44.5423 78.7241 48.2731 83.4786 50.8634ZM16.5785 50.8634C21.331 53.4528 26.8066 54.8131 32.3753 54.8119C31.8227 55.9959 30.9905 57.093 29.9443 58.4674L29.8542 58.5857L29.7788 58.7139C29.5185 59.1564 29.1163 59.5972 28.4973 60.177C28.3736 60.2929 28.2322 60.4219 28.0796 60.5611C27.583 61.0144 26.9669 61.5766 26.4486 62.1518C26.0281 62.583 25.4918 62.9868 24.7984 63.4615C24.6579 63.5576 24.5052 63.6603 24.3442 63.7685C23.7727 64.1529 23.0981 64.6065 22.5072 65.0796L22.4773 65.1036L22.4482 65.1284C22.0402 65.4761 21.5154 65.781 20.811 66.1293C20.6467 66.2106 20.4553 66.3018 20.2482 66.4005C19.7198 66.6524 19.0898 66.9527 18.5499 67.2586C18.1897 67.4382 17.8462 67.619 17.5312 67.7854L17.4357 67.8359C17.1314 67.9967 16.8582 68.1411 16.5886 68.277C15.9922 68.5777 15.5252 68.7785 15.0997 68.8977L15.0168 68.9209L14.9356 68.9498L11.6633 70.1148C11.6622 70.1152 11.661 70.1156 11.6598 70.116C10.7427 70.44 10.0216 70.6969 9.52888 70.8732C9.28222 70.9615 9.0928 71.0295 8.96474 71.0756L8.81915 71.1281L8.78181 71.1416L8.77218 71.1451L8.76964 71.146L8.76894 71.1462L8.76874 71.1463L8.76867 71.1463L9.61925 73.4972L8.76863 71.1463L6.56814 71.9426L7.2174 74.1908L10.161 84.3839L10.8041 86.6107L13.0731 86.1376L16.704 85.3806L16.7142 85.3785L16.7244 85.3763C17.183 85.2767 17.7224 85.1619 18.3106 85.0367C19.0962 84.8695 19.9689 84.6838 20.8525 84.491C22.3281 84.2455 23.9191 83.684 25.3508 83.1787C25.7638 83.0329 26.1636 82.8918 26.5435 82.7643L26.6005 82.7452L26.6565 82.7234C27.2218 82.5029 27.7592 82.3257 28.3716 82.1238C28.7558 81.997 29.1696 81.8605 29.6384 81.6976C30.7497 81.3111 31.9928 80.8287 33.2254 80.1187C33.8575 79.7733 34.4821 79.4654 35.1669 79.1277C35.5652 78.9314 35.9838 78.725 36.4361 78.4954C37.6068 77.901 38.8772 77.2095 40.0979 76.3292L40.1282 76.3074L40.1577 76.2847C40.7713 75.8139 41.3705 75.4011 42.0299 74.9468C42.445 74.6608 42.8841 74.3584 43.3656 74.0146C44.4966 73.2072 45.7187 72.2645 46.7986 71.0998C48.777 69.2422 50.874 67.1595 52.5475 64.7378C54.2681 62.6448 55.5032 60.3743 56.6101 58.3396C56.7456 58.0906 56.8791 57.8451 57.0114 57.6039L57.0361 57.559L57.0589 57.513C58.2776 55.0569 59.2512 52.5615 60.0407 50.1592L60.047 50.14L60.053 50.1207C61.5644 45.2592 62.2363 40.6542 62.4957 36.7326L62.4966 36.7185L62.4974 36.7043C62.7103 32.8189 62.5886 29.5477 62.3175 27.1246C62.2205 26.1214 62.0825 25.1217 61.9038 24.1275L61.7533 23.2535L61.3178 20.7239L60.865 20.8143C59.4358 16.8251 56.9408 13.2089 53.608 10.2583C49.6497 6.75395 44.6618 4.32067 39.2363 3.19979C33.8108 2.07888 28.1307 2.30763 22.8421 3.8639C17.5536 5.42017 12.8361 8.25203 9.2599 12.0754C5.68018 15.9025 3.38878 20.5714 2.71042 25.554C2.03164 30.5397 3.00479 35.574 5.48456 40.0612C7.96087 44.5423 11.824 48.2731 16.5785 50.8634Z" fill="#1D4259" stroke="#DED5CD" stroke-width="5"/>
</svg>
